<svg width="current" height="current" viewBox="0 0 2057 615" fill="none" xmlns="http://www.w3.org/2000/svg">
<path d="M184.444 614.2C98.0438 614.2 40.4438 579.8 0.443751 511L82.0438 450.2C104.444 493.4 135.644 511.8 169.244 511.8C222.044 511.8 249.244 484.6 249.244 403V11H367.644V412.6C367.644 523.8 310.844 614.2 184.444 614.2ZM594.331 603V387L415.931 11H541.531L600.731 155.8C618.331 199.8 634.331 241.4 651.931 287H655.131C673.531 241.4 691.131 199.8 708.731 155.8L767.131 11H890.331L711.931 387V603H594.331ZM1107.64 603V11H1270.04C1450.84 11 1562.04 104.6 1562.04 304.6C1562.04 503.8 1450.84 603 1276.44 603H1107.64ZM1226.04 507.8H1262.04C1373.24 507.8 1441.24 448.6 1441.24 304.6C1441.24 160.6 1373.24 105.4 1262.04 105.4H1226.04V507.8ZM1839.54 614.2C1759.54 614.2 1681.14 583.8 1623.54 528.6L1691.54 447C1733.14 486.2 1789.94 511.8 1841.94 511.8C1903.54 511.8 1935.54 485.4 1935.54 444.6C1935.54 400.6 1899.54 386.2 1846.74 363.8L1767.54 330.2C1708.34 306.2 1647.54 257.4 1647.54 171.8C1647.54 75 1733.14 0.599983 1852.34 0.599983C1921.14 0.599983 1989.94 27.8 2037.94 76.6L1978.74 151C1940.34 119.8 1901.14 102.2 1852.34 102.2C1800.34 102.2 1767.54 125.4 1767.54 163.8C1767.54 206.2 1809.94 222.2 1860.34 242.2L1937.94 274.2C2009.14 303.8 2056.34 350.2 2056.34 435C2056.34 531.8 1975.54 614.2 1839.54 614.2Z" fill="#FD8FFF"/>
</svg>
