<svg width="100" height="100" viewBox="0 0 100 100" fill="none" xmlns="http://www.w3.org/2000/svg">
<path d="M45.9429 90.4467V52.1092L12.4442 32.7543V71.0918L45.9429 90.4467ZM53.3871 90.4467L86.8859 71.0918V32.6303L53.3871 52.0893V90.4467ZM49.665 45.7816L82.6675 26.5509L49.665 7.44417L16.5385 26.5509L49.665 45.7816ZM8.72208 77.5434C7.54342 76.8462 6.62862 75.9276 5.97767 74.7878C5.32589 73.6472 5 72.4152 5 71.0918V28.9082C5 27.5848 5.32589 26.3528 5.97767 25.2122C6.62862 24.0724 7.54342 23.1538 8.72208 22.4566L45.9429 0.992556C47.1282 0.330852 48.3755 0 49.6849 0C50.995 0 52.2291 0.330852 53.3871 0.992556L90.6079 22.4566C91.7866 23.1538 92.7018 24.0724 93.3536 25.2122C94.0046 26.3528 94.33 27.5848 94.33 28.9082V71.0918C94.33 72.4152 94.0046 73.6472 93.3536 74.7878C92.7018 75.9276 91.7866 76.8462 90.6079 77.5434L53.3871 99.0074C52.2018 99.6692 50.9545 100 49.6452 100C48.335 100 47.1009 99.6692 45.9429 99.0074L8.72208 77.5434Z" fill="#FD8FFF"/>
</svg>
